<svg width="36" height="36" viewBox="0 0 36 36" fill="none" xmlns="http://www.w3.org/2000/svg">
<path d="M13.5 4.5C11.5109 4.5 9.60322 5.29018 8.1967 6.6967C6.79018 8.10322 6 10.0109 6 12C6 13.9891 6.79018 15.8968 8.1967 17.3033C9.60322 18.7098 11.5109 19.5 13.5 19.5C15.4891 19.5 17.3968 18.7098 18.8033 17.3033C20.2098 15.8968 21 13.9891 21 12C21 10.0109 20.2098 8.10322 18.8033 6.6967C17.3968 5.29018 15.4891 4.5 13.5 4.5ZM9 12C9 10.8065 9.47411 9.66193 10.318 8.81802C11.1619 7.97411 12.3065 7.5 13.5 7.5C14.6935 7.5 15.8381 7.97411 16.682 8.81802C17.5259 9.66193 18 10.8065 18 12C18 13.1935 17.5259 14.3381 16.682 15.182C15.8381 16.0259 14.6935 16.5 13.5 16.5C12.3065 16.5 11.1619 16.0259 10.318 15.182C9.47411 14.3381 9 13.1935 9 12ZM25.362 12.327C24.9402 12.1121 24.4734 12 24 12V9C24.9473 9.00006 25.8811 9.22442 26.725 9.65471C27.5689 10.085 28.299 10.709 28.8554 11.4756C29.4118 12.2423 29.7788 13.1298 29.9264 14.0655C30.0739 15.0012 29.9978 15.9586 29.7043 16.8592C29.4107 17.7599 28.9081 18.5782 28.2375 19.2473C27.567 19.9164 26.7475 20.4172 25.8462 20.7088C24.9449 21.0003 23.9874 21.0743 23.052 20.9247C22.1166 20.7751 21.2299 20.4061 20.4645 19.848L22.2315 17.424C22.566 17.6675 22.9473 17.8391 23.3514 17.9281C23.7554 18.0172 24.1736 18.0216 24.5794 17.9413C24.9853 17.8609 25.3702 17.6975 25.7098 17.4612C26.0495 17.225 26.3366 16.921 26.5532 16.5685C26.7697 16.2159 26.911 15.8223 26.9681 15.4126C27.0252 15.0028 26.997 14.5856 26.8851 14.1872C26.7732 13.7889 26.5802 13.418 26.3181 13.0979C26.0559 12.7777 25.7304 12.5153 25.362 12.327ZM29.997 31.5C29.9966 29.9096 29.3646 28.3845 28.2401 27.2599C27.1155 26.1354 25.5904 25.5034 24 25.503V22.5C26.3868 22.5004 28.6758 23.4487 30.3635 25.1365C32.0513 26.8242 32.9996 29.1132 33 31.5H29.997ZM24 31.5H21C21 29.5109 20.2098 27.6032 18.8033 26.1967C17.3968 24.7902 15.4891 24 13.5 24C11.5109 24 9.60322 24.7902 8.1967 26.1967C6.79018 27.6032 6 29.5109 6 31.5H3C3 28.7152 4.10625 26.0445 6.07538 24.0754C8.04451 22.1062 10.7152 21 13.5 21C16.2848 21 18.9555 22.1062 20.9246 24.0754C22.8938 26.0445 24 28.7152 24 31.5Z" fill="#F77E23"/>
</svg>
