<svg width="36" height="36" viewBox="0 0 36 36" fill="none" xmlns="http://www.w3.org/2000/svg">
<g clip-path="url(#clip0_1_3184)">
<path d="M15.8144 35.865C12.6037 35.4488 9.29843 34.0718 6.89093 32.1446C1.47068 27.8201 -0.989693 20.988 0.416557 14.2031C1.01956 11.2736 2.59006 8.19114 4.60043 5.97039C6.08138 4.3037 7.86731 2.93551 9.86206 1.93951C12.5103 0.597385 15.0416 -0.00561523 18.0296 -0.00561523C20.1738 -0.00561523 21.8973 0.275635 23.8717 0.94951C26.4655 1.83921 28.8219 3.30934 30.7614 5.24784C32.7009 7.18634 34.1722 9.54204 35.0632 12.1354C36.1184 15.2291 36.3108 18.522 35.6369 21.7856C35.0981 24.3641 33.7087 27.2644 31.9987 29.3614C31.2956 30.2288 29.6778 31.7756 28.8284 32.4023C26.2874 34.2894 23.2989 35.4828 20.1569 35.865C19.2311 35.982 16.7111 35.9764 15.8156 35.865H15.8144ZM20.7194 34.3598C25.105 33.6247 29.019 31.1777 31.6004 27.5569C34.6413 23.2853 35.4558 17.5545 33.7391 12.5573C33.3352 11.385 32.3328 9.42864 31.6004 8.39701C30.7859 7.24276 28.7699 5.22114 27.6101 4.40664C26.4851 3.61014 24.5692 2.64264 23.2619 2.21513C20.9022 1.43117 18.3965 1.18742 15.93 1.50189C13.4634 1.81637 11.0991 2.68104 9.01156 4.03201C7.0475 5.32218 5.36861 7.00108 4.07843 8.96514C2.72781 11.0515 1.86331 13.4147 1.54883 15.8802C1.23434 18.3456 1.47792 20.8501 2.26156 23.2088C2.69468 24.5149 3.66218 26.4375 4.45306 27.5625C5.27318 28.7168 7.28918 30.7384 8.44343 31.5529C9.48068 32.2796 11.4314 33.2809 12.6037 33.6915C15.2129 34.578 18.0004 34.8075 20.7194 34.3598ZM14.4847 28.3241C13.6436 28.1973 12.8366 27.9023 12.1121 27.4568C11.4618 27.0405 6.55118 22.23 6.31156 21.7789C6.03593 21.2636 6.51631 20.3254 7.20256 20.0385L7.52431 19.9035L6.53431 18.8955C5.98981 18.3386 5.47343 17.7469 5.39131 17.5826C5.19781 17.208 5.19218 16.4048 5.37331 16.047C5.44981 15.9008 5.63093 15.678 5.77156 15.5543C6.01231 15.3551 6.03481 15.2843 6.01231 14.7803C5.98306 14.3348 6.02356 14.1593 6.21706 13.8251C6.49831 13.3448 7.07881 13.0219 7.64693 13.0163C7.96306 13.0163 8.04518 12.9758 8.18018 12.7406C8.53231 12.1253 9.53918 11.9025 10.3076 12.2783L10.7238 12.4774L10.9286 12.2783C11.2098 12.0206 11.7723 11.7923 12.1413 11.7923C12.8793 11.7923 13.9222 12.6416 13.9222 13.239C13.9222 13.9534 13.2719 14.0771 12.6273 13.4854C12.1998 13.0871 11.9827 13.0455 11.8072 13.3268C11.7194 13.4618 11.9298 13.7138 13.1898 14.985C14.4498 16.2506 14.6782 16.5206 14.6782 16.7603C14.6682 16.9439 14.59 17.1173 14.4589 17.2463C14.3278 17.3753 14.1532 17.4507 13.9694 17.4578C13.7411 17.4578 13.3664 17.1293 11.6373 15.4069C9.87331 13.6485 9.55156 13.3673 9.41093 13.4561C9.02956 13.6969 9.15893 13.8724 11.2211 15.9401C12.3404 17.0651 13.2607 18.0608 13.2607 18.1553C13.2607 18.3488 13.0852 18.7065 12.9389 18.7999C12.819 18.8526 12.6884 18.8768 12.5576 18.8708C12.3168 18.8764 11.9478 18.5423 9.98581 16.5859C8.01706 14.6284 7.66493 14.3123 7.52431 14.4C7.13731 14.6464 7.26668 14.8163 9.51106 17.0719C10.7362 18.297 11.7611 19.3928 11.7903 19.5098C11.8544 19.7213 11.7138 20.0903 11.5271 20.2185C11.4031 20.2712 11.269 20.2954 11.1344 20.2894C10.8937 20.2894 10.5899 20.0261 8.96656 18.4028C7.40168 16.8379 7.03831 16.5161 6.83918 16.5341C6.27668 16.5983 6.47581 16.8503 9.38168 19.7629C11.9017 22.2885 12.2234 22.6463 12.2234 22.9095C12.226 23.0062 12.2042 23.1019 12.1602 23.188C12.1162 23.2741 12.0513 23.3477 11.9714 23.4023C11.5203 23.76 11.3448 23.6779 10.2074 22.5765C9.62693 22.0196 9.02956 21.4808 8.87093 21.3806C8.58406 21.2051 7.85731 21.1286 7.72231 21.2693C7.67506 21.3098 8.74718 22.4415 10.1017 23.7825C12.3573 26.0145 12.6149 26.244 13.2776 26.5601C13.888 26.8641 14.5603 27.0232 15.2422 27.0252C15.9241 27.0271 16.5973 26.8719 17.2094 26.5714C19.1017 25.6691 20.1513 23.4776 19.6349 21.4909C19.3773 20.5009 19.0544 20.0261 17.7539 18.684C16.2543 17.1484 15.9078 16.7265 15.5388 15.9885C15.1282 15.1628 14.9527 14.3595 14.9527 13.3571C14.9527 12.2726 15.0641 11.781 15.5444 10.7674C16.0012 9.80101 16.9563 8.78739 17.9002 8.26539C19.7519 7.23376 22.1898 7.32151 23.9583 8.47689C24.3104 8.70526 25.5817 9.90114 27.1634 11.4885C29.5136 13.8443 29.7824 14.1491 29.7824 14.418C29.7824 15.057 29.2604 15.7658 28.6811 15.912C28.4639 15.9705 28.5056 16.029 29.4899 17.0314C30.0637 17.6119 30.5969 18.2385 30.6791 18.432C30.9547 19.0946 30.8309 19.7381 30.3269 20.2658C30.0693 20.5358 30.0344 20.6291 30.0277 21.168C30.0221 21.6428 29.9692 21.8419 29.7813 22.1119C29.6329 22.3315 29.4342 22.5126 29.2018 22.64C28.9693 22.7673 28.7098 22.8374 28.4448 22.8443C28.0814 22.8443 28.0117 22.8791 27.8294 23.1548C27.4188 23.7881 26.3523 24.0098 25.6616 23.6003L25.3162 23.3955L25.0698 23.6363C24.5253 24.1583 23.6456 24.228 22.9784 23.8005C22.4396 23.4608 22.0413 22.986 22.0413 22.6868C22.0413 22.4235 22.4227 21.9893 22.6567 21.9893C22.8794 21.9893 23.1787 22.1648 23.5184 22.482C23.8582 22.8038 24.1518 22.8038 24.1979 22.4764C24.2216 22.3009 23.9403 21.9668 22.8029 20.8238C21.6071 19.6166 21.3787 19.341 21.3787 19.107C21.376 18.9764 21.4001 18.8466 21.4496 18.7256C21.5789 18.5321 21.9423 18.3971 22.1639 18.4556C22.2809 18.4849 23.2709 19.3995 24.3554 20.4829C25.4456 21.573 26.4007 22.4629 26.4884 22.4629C26.7292 22.4629 26.8867 22.2221 26.7753 22.0174C26.7224 21.924 25.8022 20.9801 24.7357 19.9136C23.0662 18.2498 22.7962 17.9393 22.7962 17.6929C22.7907 17.5602 22.8149 17.428 22.8671 17.3059C22.9672 17.1596 23.3182 16.9841 23.5173 16.9841C23.6051 16.9841 24.7064 18.009 25.9664 19.2634C28.2749 21.5606 28.4448 21.6889 28.6856 21.3086C28.7733 21.168 28.4572 20.8103 26.4997 18.8471C24.4781 16.8199 24.2092 16.515 24.2092 16.2518C24.2092 16.0706 24.2913 15.8828 24.4207 15.7658C24.8482 15.3619 24.9776 15.444 27.0577 17.5118C29.0264 19.4749 29.2019 19.6031 29.4427 19.2285C29.5304 19.0879 29.1322 18.6548 26.6887 16.2045C24.0281 13.5326 23.8357 13.3155 23.8357 13.005C23.8357 12.5359 24.1057 12.3131 24.6266 12.3491C24.7199 12.3548 25.2824 12.8295 25.8629 13.3976C26.4491 13.9658 27.0813 14.499 27.2692 14.5811C27.6382 14.733 28.0657 14.7566 28.2479 14.6396C28.4234 14.5283 23.5601 9.74139 22.9278 9.40726C22.3857 9.11467 21.7895 8.93612 21.1758 8.8826C20.5621 8.82908 19.9439 8.90172 19.3593 9.09605C18.7748 9.29038 18.2362 9.60228 17.7767 10.0126C17.3171 10.4229 16.9465 10.9228 16.6874 11.4818C16.3826 12.132 16.3421 12.3255 16.3004 13.1636C16.2656 13.9545 16.2948 14.2009 16.4647 14.7049C16.7696 15.6015 17.0328 15.9705 18.3986 17.3655C19.8757 18.8775 20.1569 19.2229 20.5316 20.0318C21.5868 22.2818 21.1413 24.8839 19.4009 26.6175C18.0768 27.9473 16.2723 28.5683 14.4847 28.323V28.3241Z" fill="#F77E23"/>
</g>
<defs>
<clipPath id="clip0_1_3184">
<rect width="36" height="36" fill="white"/>
</clipPath>
</defs>
</svg>
