<svg width="60" height="60" viewBox="0 0 60 60" fill="none" xmlns="http://www.w3.org/2000/svg">
<rect width="60" height="60" rx="30" fill="#FFE7DB"/>
<g clip-path="url(#clip0_1_3183)">
<path d="M27.8144 47.865C24.6037 47.4488 21.2984 46.0718 18.8909 44.1446C13.4707 39.8201 11.0103 32.988 12.4166 26.2031C13.0196 23.2736 14.5901 20.1911 16.6004 17.9704C18.0814 16.3037 19.8673 14.9355 21.8621 13.9395C24.5103 12.5974 27.0416 11.9944 30.0296 11.9944C32.1738 11.9944 33.8973 12.2756 35.8717 12.9495C38.4655 13.8392 40.8219 15.3093 42.7614 17.2478C44.7009 19.1863 46.1722 21.542 47.0632 24.1354C48.1184 27.2291 48.3108 30.522 47.6369 33.7856C47.0981 36.3641 45.7087 39.2644 43.9987 41.3614C43.2956 42.2288 41.6778 43.7756 40.8284 44.4023C38.2874 46.2894 35.2989 47.4828 32.1569 47.865C31.2311 47.982 28.7111 47.9764 27.8156 47.865H27.8144ZM32.7194 46.3598C37.105 45.6247 41.019 43.1777 43.6004 39.5569C46.6413 35.2853 47.4558 29.5545 45.7391 24.5573C45.3352 23.385 44.3328 21.4286 43.6004 20.397C42.7859 19.2428 40.7699 17.2211 39.6101 16.4066C38.4851 15.6101 36.5692 14.6426 35.2619 14.2151C32.9022 13.4312 30.3965 13.1874 27.93 13.5019C25.4634 13.8164 23.0991 14.681 21.0116 16.032C19.0475 17.3222 17.3686 19.0011 16.0784 20.9651C14.7278 23.0515 13.8633 25.4147 13.5488 27.8802C13.2343 30.3456 13.4779 32.8501 14.2616 35.2088C14.6947 36.5149 15.6622 38.4375 16.4531 39.5625C17.2732 40.7168 19.2892 42.7384 20.4434 43.5529C21.4807 44.2796 23.4314 45.2809 24.6037 45.6915C27.2129 46.578 30.0004 46.8075 32.7194 46.3598ZM26.4847 40.3241C25.6436 40.1973 24.8366 39.9023 24.1121 39.4568C23.4618 39.0405 18.5512 34.23 18.3116 33.7789C18.0359 33.2636 18.5163 32.3254 19.2026 32.0385L19.5243 31.9035L18.5343 30.8955C17.9898 30.3386 17.4734 29.7469 17.3913 29.5826C17.1978 29.208 17.1922 28.4048 17.3733 28.047C17.4498 27.9008 17.6309 27.678 17.7716 27.5543C18.0123 27.3551 18.0348 27.2843 18.0123 26.7803C17.9831 26.3348 18.0236 26.1593 18.2171 25.8251C18.4983 25.3448 19.0788 25.0219 19.6469 25.0163C19.9631 25.0163 20.0452 24.9758 20.1802 24.7406C20.5323 24.1253 21.5392 23.9025 22.3076 24.2783L22.7238 24.4774L22.9286 24.2783C23.2098 24.0206 23.7723 23.7923 24.1413 23.7923C24.8793 23.7923 25.9222 24.6416 25.9222 25.239C25.9222 25.9534 25.2719 26.0771 24.6273 25.4854C24.1998 25.0871 23.9827 25.0455 23.8072 25.3268C23.7194 25.4618 23.9298 25.7138 25.1898 26.985C26.4498 28.2506 26.6782 28.5206 26.6782 28.7603C26.6682 28.9439 26.59 29.1173 26.4589 29.2463C26.3278 29.3753 26.1532 29.4507 25.9694 29.4578C25.7411 29.4578 25.3664 29.1293 23.6373 27.4069C21.8733 25.6485 21.5516 25.3673 21.4109 25.4561C21.0296 25.6969 21.1589 25.8724 23.2211 27.9401C24.3404 29.0651 25.2607 30.0608 25.2607 30.1553C25.2607 30.3488 25.0852 30.7065 24.9389 30.7999C24.819 30.8526 24.6884 30.8768 24.5576 30.8708C24.3168 30.8764 23.9478 30.5423 21.9858 28.5859C20.0171 26.6284 19.6649 26.3123 19.5243 26.4C19.1373 26.6464 19.2667 26.8163 21.5111 29.0719C22.7362 30.297 23.7611 31.3928 23.7903 31.5098C23.8544 31.7213 23.7138 32.0903 23.5271 32.2185C23.4031 32.2712 23.269 32.2954 23.1344 32.2894C22.8937 32.2894 22.5899 32.0261 20.9666 30.4028C19.4017 28.8379 19.0383 28.5161 18.8392 28.5341C18.2767 28.5983 18.4758 28.8503 21.3817 31.7629C23.9017 34.2885 24.2234 34.6463 24.2234 34.9095C24.226 35.0062 24.2042 35.1019 24.1602 35.188C24.1162 35.2741 24.0513 35.3477 23.9714 35.4023C23.5203 35.76 23.3448 35.6779 22.2074 34.5765C21.6269 34.0196 21.0296 33.4808 20.8709 33.3806C20.5841 33.2051 19.8573 33.1286 19.7223 33.2693C19.6751 33.3098 20.7472 34.4415 22.1017 35.7825C24.3573 38.0145 24.6149 38.244 25.2776 38.5601C25.888 38.8641 26.5603 39.0232 27.2422 39.0252C27.9241 39.0271 28.5973 38.8719 29.2094 38.5714C31.1017 37.6691 32.1513 35.4776 31.6349 33.4909C31.3773 32.5009 31.0544 32.0261 29.7539 30.684C28.2543 29.1484 27.9078 28.7265 27.5388 27.9885C27.1282 27.1628 26.9527 26.3595 26.9527 25.3571C26.9527 24.2726 27.0641 23.781 27.5444 22.7674C28.0012 21.801 28.9563 20.7874 29.9002 20.2654C31.7519 19.2338 34.1898 19.3215 35.9583 20.4769C36.3104 20.7053 37.5817 21.9011 39.1634 23.4885C41.5136 25.8443 41.7824 26.1491 41.7824 26.418C41.7824 27.057 41.2604 27.7658 40.6811 27.912C40.4639 27.9705 40.5056 28.029 41.4899 29.0314C42.0637 29.6119 42.5969 30.2385 42.6791 30.432C42.9547 31.0946 42.8309 31.7381 42.3269 32.2658C42.0693 32.5358 42.0344 32.6291 42.0277 33.168C42.0221 33.6428 41.9692 33.8419 41.7813 34.1119C41.6329 34.3315 41.4342 34.5126 41.2018 34.64C40.9693 34.7673 40.7098 34.8374 40.4448 34.8443C40.0814 34.8443 40.0117 34.8791 39.8294 35.1548C39.4188 35.7881 38.3523 36.0098 37.6616 35.6003L37.3162 35.3955L37.0698 35.6363C36.5253 36.1583 35.6456 36.228 34.9784 35.8005C34.4396 35.4608 34.0413 34.986 34.0413 34.6868C34.0413 34.4235 34.4227 33.9893 34.6567 33.9893C34.8794 33.9893 35.1787 34.1648 35.5184 34.482C35.8582 34.8038 36.1518 34.8038 36.1979 34.4764C36.2216 34.3009 35.9403 33.9668 34.8029 32.8238C33.6071 31.6166 33.3787 31.341 33.3787 31.107C33.376 30.9764 33.4001 30.8466 33.4496 30.7256C33.5789 30.5321 33.9423 30.3971 34.1639 30.4556C34.2809 30.4849 35.2709 31.3995 36.3554 32.4829C37.4456 33.573 38.4007 34.4629 38.4884 34.4629C38.7292 34.4629 38.8867 34.2221 38.7753 34.0174C38.7224 33.924 37.8022 32.9801 36.7357 31.9136C35.0662 30.2498 34.7962 29.9393 34.7962 29.6929C34.7907 29.5602 34.8149 29.428 34.8671 29.3059C34.9672 29.1596 35.3182 28.9841 35.5173 28.9841C35.6051 28.9841 36.7064 30.009 37.9664 31.2634C40.2749 33.5606 40.4448 33.6889 40.6856 33.3086C40.7733 33.168 40.4572 32.8103 38.4997 30.8471C36.4781 28.8199 36.2092 28.515 36.2092 28.2518C36.2092 28.0706 36.2913 27.8828 36.4207 27.7658C36.8482 27.3619 36.9776 27.444 39.0577 29.5118C41.0264 31.4749 41.2019 31.6031 41.4427 31.2285C41.5304 31.0879 41.1322 30.6548 38.6887 28.2045C36.0281 25.5326 35.8357 25.3155 35.8357 25.005C35.8357 24.5359 36.1057 24.3131 36.6266 24.3491C36.7199 24.3548 37.2824 24.8295 37.8629 25.3976C38.4491 25.9658 39.0813 26.499 39.2692 26.5811C39.6382 26.733 40.0657 26.7566 40.2479 26.6396C40.4234 26.5283 35.5601 21.7414 34.9278 21.4073C34.3857 21.1147 33.7895 20.9361 33.1758 20.8826C32.5621 20.8291 31.9439 20.9017 31.3593 21.096C30.7748 21.2904 30.2362 21.6023 29.7767 22.0126C29.3171 22.4229 28.9465 22.9228 28.6874 23.4818C28.3826 24.132 28.3421 24.3255 28.3004 25.1636C28.2656 25.9545 28.2948 26.2009 28.4647 26.7049C28.7696 27.6015 29.0328 27.9705 30.3986 29.3655C31.8757 30.8775 32.1569 31.2229 32.5316 32.0318C33.5868 34.2818 33.1413 36.8839 31.4009 38.6175C30.0768 39.9473 28.2723 40.5683 26.4847 40.323V40.3241Z" fill="#F77E23"/>
</g>
<defs>
<clipPath id="clip0_1_3183">
<rect width="36" height="36" fill="white" transform="translate(12 12)"/>
</clipPath>
</defs>
</svg>
