<svg width="60" height="60" viewBox="0 0 60 60" fill="none" xmlns="http://www.w3.org/2000/svg">
<rect width="60" height="60" rx="30" fill="#FFE7DB"/>
<path d="M33 40.5C38.6565 40.5 41.4855 40.5 43.242 38.742C45 36.9855 45 34.1565 45 28.5C45 22.8435 45 20.0145 43.242 18.258C41.4855 16.5 38.6565 16.5 33 16.5H27C21.3435 16.5 18.5145 16.5 16.758 18.258C15 20.0145 15 22.8435 15 28.5C15 34.1565 15 36.9855 16.758 38.742C17.7375 39.723 19.05 40.1565 21 40.347" stroke="#F77E23" stroke-width="2" stroke-linecap="round" stroke-linejoin="round"/>
<path d="M29.9999 28.5V28.515M23.9999 28.5V28.515M35.9999 28.5V28.515M32.9999 40.5C31.1459 40.5 29.1029 41.25 27.2384 42.2175C24.2414 43.773 22.7429 44.5515 22.0049 44.055C21.2669 43.56 21.4064 42.0225 21.6869 38.949L21.7499 38.25" stroke="#F77E23" stroke-width="2" stroke-linecap="round"/>
</svg>
