<svg width="60" height="60" viewBox="0 0 60 60" fill="none" xmlns="http://www.w3.org/2000/svg">
<rect width="60" height="60" rx="30" fill="#FFE7DB"/>
<path d="M25.5 16.5C23.5109 16.5 21.6032 17.2902 20.1967 18.6967C18.7902 20.1032 18 22.0109 18 24C18 25.9891 18.7902 27.8968 20.1967 29.3033C21.6032 30.7098 23.5109 31.5 25.5 31.5C27.4891 31.5 29.3968 30.7098 30.8033 29.3033C32.2098 27.8968 33 25.9891 33 24C33 22.0109 32.2098 20.1032 30.8033 18.6967C29.3968 17.2902 27.4891 16.5 25.5 16.5ZM21 24C21 22.8065 21.4741 21.6619 22.318 20.818C23.1619 19.9741 24.3065 19.5 25.5 19.5C26.6935 19.5 27.8381 19.9741 28.682 20.818C29.5259 21.6619 30 22.8065 30 24C30 25.1935 29.5259 26.3381 28.682 27.182C27.8381 28.0259 26.6935 28.5 25.5 28.5C24.3065 28.5 23.1619 28.0259 22.318 27.182C21.4741 26.3381 21 25.1935 21 24ZM37.362 24.327C36.9402 24.1121 36.4734 24 36 24V21C36.9473 21.0001 37.8811 21.2244 38.725 21.6547C39.5689 22.085 40.299 22.709 40.8554 23.4756C41.4118 24.2423 41.7788 25.1298 41.9264 26.0655C42.0739 27.0012 41.9978 27.9586 41.7043 28.8592C41.4107 29.7599 40.9081 30.5782 40.2375 31.2473C39.567 31.9164 38.7475 32.4172 37.8462 32.7088C36.9449 33.0003 35.9874 33.0743 35.052 32.9247C34.1166 32.7751 33.2299 32.4061 32.4645 31.848L34.2315 29.424C34.566 29.6675 34.9473 29.8391 35.3514 29.9281C35.7554 30.0172 36.1736 30.0216 36.5794 29.9413C36.9853 29.8609 37.3702 29.6975 37.7098 29.4612C38.0495 29.225 38.3366 28.921 38.5532 28.5685C38.7697 28.2159 38.911 27.8223 38.9681 27.4126C39.0252 27.0028 38.997 26.5856 38.8851 26.1872C38.7732 25.7889 38.5802 25.418 38.3181 25.0979C38.0559 24.7777 37.7304 24.5153 37.362 24.327ZM41.997 43.5C41.9966 41.9096 41.3646 40.3845 40.2401 39.2599C39.1155 38.1354 37.5904 37.5034 36 37.503V34.5C38.3868 34.5004 40.6758 35.4487 42.3635 37.1365C44.0513 38.8242 44.9996 41.1132 45 43.5H41.997ZM36 43.5H33C33 41.5109 32.2098 39.6032 30.8033 38.1967C29.3968 36.7902 27.4891 36 25.5 36C23.5109 36 21.6032 36.7902 20.1967 38.1967C18.7902 39.6032 18 41.5109 18 43.5H15C15 40.7152 16.1062 38.0445 18.0754 36.0754C20.0445 34.1062 22.7152 33 25.5 33C28.2848 33 30.9555 34.1062 32.9246 36.0754C34.8938 38.0445 36 40.7152 36 43.5Z" fill="#F77E23"/>
</svg>
