<svg width="30" height="30" viewBox="0 0 30 30" fill="none" xmlns="http://www.w3.org/2000/svg">
<path fill-rule="evenodd" clip-rule="evenodd" d="M9.06206 21.25L18.4371 15L9.06206 8.75003C8.93895 8.66795 8.83321 8.56243 8.75087 8.43949C8.66854 8.31654 8.61123 8.17859 8.58221 8.0335C8.55319 7.88841 8.55303 7.73902 8.58175 7.59387C8.61046 7.44872 8.66749 7.31064 8.74956 7.18753C8.83164 7.06441 8.93716 6.95867 9.0601 6.87634C9.18305 6.794 9.321 6.73669 9.46609 6.70767C9.61118 6.67865 9.76057 6.6785 9.90572 6.70721C10.0509 6.73593 10.1889 6.79295 10.3121 6.87503L20.9396 13.96C21.1108 14.0742 21.2511 14.2288 21.3482 14.4103C21.4453 14.5917 21.4961 14.7943 21.4961 15C21.4961 15.2058 21.4453 15.4084 21.3482 15.5898C21.2511 15.7712 21.1108 15.9259 20.9396 16.04L10.3121 23.125C10.1889 23.2071 10.0509 23.2641 9.90572 23.2928C9.76057 23.3216 9.61118 23.3214 9.46609 23.2924C9.321 23.2634 9.18305 23.2061 9.0601 23.1237C8.93716 23.0414 8.83164 22.9356 8.74956 22.8125C8.66749 22.6894 8.61046 22.5513 8.58175 22.4062C8.55303 22.261 8.55319 22.1116 8.58221 21.9666C8.61123 21.8215 8.66854 21.6835 8.75087 21.5606C8.83321 21.4376 8.93895 21.3321 9.06206 21.25Z" fill="white"/>
</svg>
