<svg width="30" height="30" viewBox="0 0 30 30" fill="none" xmlns="http://www.w3.org/2000/svg">
<path fill-rule="evenodd" clip-rule="evenodd" d="M20.9379 21.25L11.5629 15L20.9379 8.75003C21.0611 8.66795 21.1668 8.56243 21.2491 8.43949C21.3315 8.31654 21.3888 8.17859 21.4178 8.0335C21.4468 7.88841 21.447 7.73902 21.4183 7.59387C21.3895 7.44872 21.3325 7.31064 21.2504 7.18753C21.1684 7.06441 21.0628 6.95867 20.9399 6.87634C20.817 6.794 20.679 6.73669 20.5339 6.70767C20.3888 6.67865 20.2394 6.6785 20.0943 6.70721C19.9491 6.73593 19.8111 6.79295 19.6879 6.87503L9.06044 13.96C8.88924 14.0742 8.74887 14.2288 8.65179 14.4103C8.5547 14.5917 8.50391 14.7943 8.50391 15C8.50391 15.2058 8.5547 15.4084 8.65179 15.5898C8.74887 15.7712 8.88924 15.9259 9.06044 16.04L19.6879 23.125C19.8111 23.2071 19.9491 23.2641 20.0943 23.2928C20.2394 23.3216 20.3888 23.3214 20.5339 23.2924C20.679 23.2634 20.817 23.2061 20.9399 23.1237C21.0628 23.0414 21.1684 22.9356 21.2504 22.8125C21.3325 22.6894 21.3895 22.5513 21.4183 22.4062C21.447 22.261 21.4468 22.1116 21.4178 21.9666C21.3888 21.8215 21.3315 21.6835 21.2491 21.5606C21.1668 21.4376 21.0611 21.3321 20.9379 21.25Z" fill="white"/>
</svg>
