<svg width="20" height="21" viewBox="0 0 20 21" fill="none" xmlns="http://www.w3.org/2000/svg">
<path fill-rule="evenodd" clip-rule="evenodd" d="M8.02739 7.24537H11.5645V9.09537C12.0741 8.03137 13.3807 7.07537 15.3436 7.07537C19.1064 7.07537 19.9998 9.19337 19.9998 13.0794V20.2764H16.1902V13.9644C16.1902 11.7514 15.6807 10.5034 14.3836 10.5034C12.5845 10.5034 11.8369 11.8484 11.8369 13.9634V20.2764H8.02739V7.24537ZM1.49501 20.1064H5.30453V7.07537H1.49501V20.1064ZM5.85024 2.82637C5.85039 3.16164 5.78706 3.4936 5.66395 3.80295C5.54083 4.11231 5.36039 4.39288 5.1331 4.62837C4.67253 5.10899 4.04911 5.37802 3.39977 5.37637C2.75157 5.37591 2.12959 5.10757 1.66834 4.62937C1.44187 4.39308 1.26204 4.11219 1.13914 3.8028C1.01625 3.49341 0.9527 3.16159 0.952148 2.82637C0.952148 2.14937 1.20929 1.50137 1.66929 1.02337C2.13013 0.544526 2.75238 0.276068 3.40072 0.276367C4.05024 0.276367 4.6731 0.545367 5.1331 1.02337C5.59215 1.50137 5.85024 2.14937 5.85024 2.82637Z" fill="white"/>
</svg>
