<svg width="21" height="23" viewBox="0 0 21 23" fill="none" xmlns="http://www.w3.org/2000/svg">
<path d="M10.4762 0.276367C4.6909 0.276367 0 5.20181 0 11.2764C0 17.3509 4.6909 22.2764 10.4762 22.2764C16.2615 22.2764 20.9524 17.3509 20.9524 11.2764C20.9524 5.20181 16.2615 0.276367 10.4762 0.276367ZM15.5108 8.56811C15.5179 8.68351 15.5179 8.80382 15.5179 8.92168C15.5179 12.5261 12.9035 16.6782 8.12606 16.6782C6.65285 16.6782 5.2872 16.2288 4.13669 15.4554C4.34715 15.4799 4.54826 15.4898 4.76339 15.4898C5.97938 15.4898 7.09715 15.0576 7.9881 14.3259C6.84694 14.3014 5.88818 13.5157 5.5608 12.4353C5.96067 12.4967 6.32079 12.4967 6.73236 12.3862C6.14477 12.2608 5.61663 11.9258 5.23767 11.4379C4.8587 10.95 4.65229 10.3394 4.65349 9.70985V9.67547C4.99724 9.87927 5.40179 10.0045 5.82504 10.0217C5.46923 9.77269 5.17743 9.43537 4.97551 9.03961C4.7736 8.64385 4.66781 8.2019 4.66752 7.75293C4.66752 7.24467 4.79379 6.78061 5.02062 6.37793C5.67282 7.22094 6.48666 7.91042 7.40925 8.40155C8.33184 8.89268 9.34254 9.17447 10.3756 9.2286C10.0085 7.3748 11.3274 5.87458 12.9128 5.87458C13.6611 5.87458 14.3346 6.2036 14.8093 6.73396C15.3963 6.61855 15.9575 6.38775 16.4579 6.07838C16.2638 6.7094 15.8569 7.24222 15.3168 7.5786C15.8406 7.51967 16.3457 7.36744 16.8134 7.15382C16.4602 7.69891 16.0183 8.18262 15.5108 8.56811Z" fill="white"/>
</svg>
