<svg width="23" height="23" viewBox="0 0 23 23" fill="none" xmlns="http://www.w3.org/2000/svg">
<path fill-rule="evenodd" clip-rule="evenodd" d="M7.41715 0.342367C8.59015 0.288367 8.96415 0.276367 11.9521 0.276367C14.9401 0.276367 15.3141 0.289367 16.4861 0.342367C17.6581 0.395367 18.4581 0.582367 19.1581 0.853367C19.8911 1.13037 20.5561 1.56337 21.1061 2.12337C21.6661 2.67237 22.0982 3.33637 22.3741 4.07037C22.6461 4.77037 22.8321 5.57037 22.8861 6.74037C22.9401 7.91537 22.9521 8.28937 22.9521 11.2764C22.9521 14.2644 22.9391 14.6384 22.8861 15.8114C22.8331 16.9814 22.6461 17.7814 22.3741 18.4814C22.0981 19.2155 21.6654 19.8806 21.1061 20.4304C20.5561 20.9904 19.8911 21.4224 19.1581 21.6984C18.4581 21.9704 17.6581 22.1564 16.4881 22.2104C15.3141 22.2644 14.9401 22.2764 11.9521 22.2764C8.96415 22.2764 8.59015 22.2634 7.41715 22.2104C6.24715 22.1574 5.44715 21.9704 4.74715 21.6984C4.01307 21.4223 3.34797 20.9896 2.79815 20.4304C2.23853 19.881 1.80546 19.2163 1.52915 18.4824C1.25815 17.7824 1.07215 16.9824 1.01815 15.8124C0.964148 14.6374 0.952148 14.2634 0.952148 11.2764C0.952148 8.28837 0.965148 7.91437 1.01815 6.74237C1.07115 5.57037 1.25815 4.77037 1.52915 4.07037C1.80587 3.33645 2.23927 2.67168 2.79915 2.12237C3.34819 1.56287 4.01262 1.12981 4.74615 0.853367C5.44615 0.582367 6.24615 0.396367 7.41615 0.342367H7.41715ZM16.3971 2.32237C15.2371 2.26937 14.8891 2.25837 11.9521 2.25837C9.01515 2.25837 8.66715 2.26937 7.50715 2.32237C6.43415 2.37137 5.85215 2.55037 5.46415 2.70137C4.95115 2.90137 4.58415 3.13837 4.19915 3.52337C3.83419 3.87842 3.55333 4.31065 3.37715 4.78837C3.22615 5.17637 3.04715 5.75837 2.99815 6.83137C2.94515 7.99137 2.93415 8.33937 2.93415 11.2764C2.93415 14.2134 2.94515 14.5614 2.99815 15.7214C3.04715 16.7944 3.22615 17.3764 3.37715 17.7644C3.55315 18.2414 3.83415 18.6744 4.19915 19.0294C4.55415 19.3944 4.98715 19.6754 5.46415 19.8514C5.85215 20.0024 6.43415 20.1814 7.50715 20.2304C8.66715 20.2834 9.01415 20.2944 11.9521 20.2944C14.8901 20.2944 15.2371 20.2834 16.3971 20.2304C17.4701 20.1814 18.0521 20.0024 18.4401 19.8514C18.9531 19.6514 19.3201 19.4144 19.7051 19.0294C20.0701 18.6744 20.3511 18.2414 20.5271 17.7644C20.6781 17.3764 20.8571 16.7944 20.9061 15.7214C20.9591 14.5614 20.9701 14.2134 20.9701 11.2764C20.9701 8.33937 20.9591 7.99137 20.9061 6.83137C20.8571 5.75837 20.6781 5.17637 20.5271 4.78837C20.3271 4.27537 20.0901 3.90837 19.7051 3.52337C19.3501 3.15844 18.9179 2.87758 18.4401 2.70137C18.0521 2.55037 17.4701 2.37137 16.3971 2.32237ZM10.5471 14.6674C11.3318 14.994 12.2055 15.0381 13.0191 14.7921C13.8326 14.5461 14.5355 14.0253 15.0078 13.3186C15.48 12.6119 15.6922 11.7632 15.6082 10.9175C15.5242 10.0717 15.1492 9.28134 14.5471 8.68137C14.1634 8.29784 13.6994 8.00418 13.1885 7.82151C12.6776 7.63885 12.1326 7.57173 11.5926 7.62498C11.0527 7.67824 10.5313 7.85054 10.066 8.1295C9.6006 8.40845 9.20289 8.78711 8.90145 9.23822C8.60001 9.68933 8.40234 10.2017 8.32266 10.7383C8.24299 11.275 8.2833 11.8227 8.44069 12.3419C8.59808 12.8611 8.86863 13.339 9.23287 13.7411C9.59711 14.1432 10.046 14.4596 10.5471 14.6674ZM7.95415 7.27837C8.47917 6.75334 9.10247 6.33687 9.78845 6.05273C10.4744 5.76859 11.2097 5.62234 11.9521 5.62234C12.6946 5.62234 13.4299 5.76859 14.1159 6.05273C14.8018 6.33687 15.4251 6.75334 15.9501 7.27837C16.4752 7.80339 16.8916 8.42669 17.1758 9.11267C17.4599 9.79864 17.6062 10.5339 17.6062 11.2764C17.6062 12.0189 17.4599 12.7541 17.1758 13.4401C16.8916 14.126 16.4752 14.7493 15.9501 15.2744C14.8898 16.3347 13.4517 16.9304 11.9521 16.9304C10.4526 16.9304 9.01448 16.3347 7.95415 15.2744C6.89381 14.214 6.29812 12.7759 6.29812 11.2764C6.29812 9.77683 6.89381 8.3387 7.95415 7.27837ZM18.8601 6.46437C18.9903 6.34164 19.0944 6.19405 19.1665 6.03034C19.2385 5.86663 19.277 5.69014 19.2796 5.5113C19.2822 5.33246 19.2489 5.15491 19.1816 4.98918C19.1144 4.82344 19.0146 4.67288 18.8881 4.54641C18.7616 4.41993 18.6111 4.32012 18.4453 4.25288C18.2796 4.18565 18.1021 4.15234 17.9232 4.15495C17.7444 4.15756 17.5679 4.19602 17.4042 4.26806C17.2405 4.34011 17.0929 4.44426 16.9701 4.57437C16.7315 4.8274 16.6008 5.16349 16.6059 5.5113C16.6109 5.85911 16.7513 6.19125 16.9973 6.43721C17.2433 6.68317 17.5754 6.8236 17.9232 6.82867C18.271 6.83374 18.6071 6.70306 18.8601 6.46437Z" fill="white"/>
</svg>
